<?xml version="1.0" encoding="UTF-8" standalone="no"?>
<!-- Created with Inkscape (http://www.inkscape.org/) -->

<svg
   xmlns:dc="http://purl.org/dc/elements/1.1/"
   xmlns:cc="http://creativecommons.org/ns#"
   xmlns:rdf="http://www.w3.org/1999/02/22-rdf-syntax-ns#"
   xmlns:svg="http://www.w3.org/2000/svg"
   xmlns="http://www.w3.org/2000/svg"
   xmlns:sodipodi="http://sodipodi.sourceforge.net/DTD/sodipodi-0.dtd"
   xmlns:inkscape="http://www.inkscape.org/namespaces/inkscape"
   width="135.67859mm"
   height="111.96155mm"
   viewBox="0 0 135.67858 111.96154"
   version="1.1"
   id="svg4226"
   inkscape:version="0.92.3 (2405546, 2018-03-11)"
   sodipodi:docname="bc-oberurdorf-lineart.svg">
  <defs
     id="defs4220" />
  <sodipodi:namedview
     id="base"
     pagecolor="#ffffff"
     bordercolor="#666666"
     borderopacity="1.0"
     inkscape:pageopacity="0.0"
     inkscape:pageshadow="2"
     inkscape:zoom="2.1765625"
     inkscape:cx="330.13976"
     inkscape:cy="206.31303"
     inkscape:document-units="mm"
     inkscape:current-layer="layer1"
     showgrid="false"
     fit-margin-top="0"
     fit-margin-left="0"
     fit-margin-right="0"
     fit-margin-bottom="0"
     inkscape:window-width="2238"
     inkscape:window-height="1776"
     inkscape:window-x="0"
     inkscape:window-y="22"
     inkscape:window-maximized="0" />
  <metadata
     id="metadata4223">
    <rdf:RDF>
      <cc:Work
         rdf:about="">
        <dc:format>image/svg+xml</dc:format>
        <dc:type
           rdf:resource="http://purl.org/dc/dcmitype/StillImage" />
        <dc:title></dc:title>
      </cc:Work>
    </rdf:RDF>
  </metadata>
  <g
     inkscape:label="Layer 1"
     inkscape:groupmode="layer"
     id="layer1"
     transform="translate(0.85181186,-81.733972)">
    <g
       style="display:inline"
       id="g5242"
       transform="matrix(0.28222223,0,0,0.28222223,514.76009,-272.39484)">
      <g
         inkscape:export-ydpi="14.04"
         inkscape:export-xdpi="14.04"
         inkscape:export-filename="/home/ale/docs/src/htdocs-bc_oberurdorf/resources/bc-oberurdorf-75.png"
         id="g4758">
        <g
           id="g4613"
           transform="translate(0,1.4142136)">
          <path
             sodipodi:nodetypes="cc"
             inkscape:connector-curvature="0"
             id="path3340-9-9-5-7-8-5-1-6-8"
             d="m -1413.846,1391.8641 -88.3015,112.0673"
             style="display:inline;fill:#ffffff;stroke:#000000;stroke-width:2;stroke-linecap:butt;stroke-linejoin:miter;stroke-miterlimit:4;stroke-dasharray:none;stroke-opacity:1" />
          <path
             d="m -1664.787,1619.3841 -26.5046,-7.1947 0.6361,-41.1862 103.2968,-95.0978 44.322,-0.1893 -7.512,34.6209 z"
             style="display:inline;fill:#ffffff;stroke:#000000;stroke-width:2;stroke-miterlimit:4;stroke-dasharray:none"
             id="path4976-9-0-9-8"
             inkscape:connector-curvature="0" />
          <path
             d="m -1800.3131,1369.8949 -25.4267,-11.8784 8.7949,-26.2716 163.063,-15.7874 24.0954,0.5604 -12.7021,30.1036 z"
             style="display:inline;fill:#ffffff;stroke:#000000;stroke-width:2;stroke-miterlimit:4;stroke-dasharray:none"
             id="path4982-0-8-2-4-3"
             inkscape:connector-curvature="0"
             sodipodi:nodetypes="ccccccc" />
          <path
             d="m -1618.1419,1649.0659 -37.7732,-1.5188 1.5431,-37.1814 106.7868,-101.6706 31.2856,-4.6675 z"
             style="display:inline;fill:#ffffff;stroke:#000000;stroke-width:2;stroke-miterlimit:4;stroke-dasharray:none"
             id="path4974-7-9-6-0"
             inkscape:connector-curvature="0"
             sodipodi:nodetypes="cccccc" />
          <path
             d="m -1765.7226,1453.3663 -22.1548,-17.2941 3.5924,-26.285 160.065,-42.0892 24.0238,-1.9378 -9.5163,31.2571 z"
             style="display:inline;fill:#ffffff;stroke:#000000;stroke-width:2;stroke-miterlimit:4;stroke-dasharray:none"
             id="path4982-8-7-9-2"
             inkscape:connector-curvature="0" />
          <path
             d="m -1781.784,1413.4653 -22.1548,-17.2942 3.5923,-26.2849 160.065,-42.0892 24.0239,-1.9378 -9.5164,31.2571 z"
             style="display:inline;fill:#ffffff;stroke:#000000;stroke-width:2;stroke-miterlimit:4;stroke-dasharray:none"
             id="path4982-0-5-2-1"
             inkscape:connector-curvature="0" />
          <path
             sodipodi:nodetypes="ccccccc"
             d="m -1731.3789,1511.7593 -35.6226,-20.0095 0.4439,-36.5395 147.1748,-58.7476 30.2316,3.5064 -6.176,36.8628 z"
             style="display:inline;fill:#ffffff;stroke:#000000;stroke-width:2;stroke-miterlimit:4;stroke-dasharray:none"
             id="path4980-3-7-0-4"
             inkscape:connector-curvature="0" />
          <path
             d="m -1573.7369,1491.1713 9.666,-43.4355 -39.5415,-11.674 -127.4562,74.44 0.8921,38.7814 42.4511,19.0435 z"
             style="display:inline;fill:#ffffff;stroke:#000000;stroke-width:2;stroke-miterlimit:4;stroke-dasharray:none"
             id="path4978-7-7-7-1"
             inkscape:connector-curvature="0" />
          <path
             sodipodi:nodetypes="ccccc"
             d="m -1775.4326,1354.807 -35.7606,-17.2953 16.8846,-30.6497 193.6533,-4.2484 z"
             style="display:inline;fill:#ffffff;stroke:#000000;stroke-width:2;stroke-miterlimit:4;stroke-dasharray:none"
             id="path4986-2-2-9"
             inkscape:connector-curvature="0" />
          <path
             sodipodi:nodetypes="ccccsccccc"
             inkscape:connector-curvature="0"
             id="path4896-1-1-0"
             style="display:inline;fill:#ffffff;stroke:#000000;stroke-width:2;stroke-miterlimit:4;stroke-dasharray:none"
             d="m -1398.7477,1387.2457 c 35.8176,-19.1089 53.2013,-42.5271 51.3702,-68.8375 0.4808,-5.4398 -0.1068,-9.0086 -1.897,-14.0176 -2.1152,-5.9178 -5.0928,-11.9567 -8.6648,-17.6961 -8.7688,-12.5857 -14.3825,-18.7501 -22.7837,-24.364 -19.2467,-12.8613 -51.6691,-10.7479 -85.8818,11.0439 l 1.8673,3.1336 64.1213,107.6052 1.8674,3.1336 z" />
          <path
             sodipodi:nodetypes="cc"
             inkscape:connector-curvature="0"
             id="path3340-4-7"
             d="m -1603.1369,1302.7867 c 0,0 126.2501,-18.75 125.2501,-20.75"
             style="display:inline;fill:#ffffff;stroke:#000000;stroke-width:2;stroke-linecap:butt;stroke-linejoin:miter;stroke-miterlimit:4;stroke-dasharray:none;stroke-opacity:1" />
          <path
             id="path3340-9-9-5-0-7"
             d="m -1560.1805,1366.5205 c 0,0 108.0754,-46.5668 107.0754,-48.5668"
             style="display:inline;fill:#ffffff;stroke:#000000;stroke-width:2;stroke-linecap:butt;stroke-linejoin:miter;stroke-miterlimit:4;stroke-dasharray:none;stroke-opacity:1"
             inkscape:connector-curvature="0" />
          <path
             id="path4492"
             d="m -1532.1767,1414.9699 c 0,0 96.5118,-68.6766 95.5118,-70.6766"
             style="display:inline;fill:#ffffff;stroke:#000000;stroke-width:2;stroke-linecap:butt;stroke-linejoin:miter;stroke-miterlimit:4;stroke-dasharray:none;stroke-opacity:1"
             inkscape:connector-curvature="0" />
          <path
             sodipodi:nodetypes="cc"
             inkscape:connector-curvature="0"
             id="path4500"
             d="m -1509.0367,1442.6202 c 0,0 84.5087,-73.5226 83.5087,-75.5226"
             style="display:inline;fill:#ffffff;stroke:#000000;stroke-width:2;stroke-linecap:butt;stroke-linejoin:miter;stroke-miterlimit:4;stroke-dasharray:none;stroke-opacity:1" />
          <path
             sodipodi:nodetypes="cc"
             inkscape:connector-curvature="0"
             id="path4482"
             d="m -1581.5256,1334.7679 c 0,0 117.2783,-33.3137 116.2783,-35.3137"
             style="display:inline;fill:#ffffff;stroke:#000000;stroke-width:2;stroke-linecap:butt;stroke-linejoin:miter;stroke-miterlimit:4;stroke-dasharray:none;stroke-opacity:1" />
          <path
             sodipodi:nodetypes="csccscc"
             inkscape:connector-curvature="0"
             id="rect4906-5-9-8"
             d="m -1419.9738,1399.7986 c 9.5195,-7.3195 -16.2401,-49.1025 -26.8598,-66.9382 -10.896,-18.2996 -19.9431,-45.4628 -40.3438,-48.0411 l 19.1045,-11.3873 c 11.2607,-5.3044 26.4509,25.7105 41.161,49.7599 16.387,26.791 33.804,56.828 28.5912,65.0267 z"
             style="display:inline;fill:#000000;stroke-width:2;stroke-miterlimit:4;stroke-dasharray:none" />
          <path
             sodipodi:nodetypes="ccccc"
             inkscape:connector-curvature="0"
             id="rect8328-8-1-8"
             d="m -1416.6039,1345.5056 c 6.349,8.8099 9.4083,15.3412 13.0885,24.4752 -4.3221,6.8064 -8.7359,8.6688 -13.8523,8.9357 -5.4968,-7.2162 -7.7487,-15.6526 -13.7117,-25.4171 2.7115,-5.1292 8.7007,-6.4365 14.4755,-7.9938 z"
             style="display:inline;fill:#ffffff;stroke:#000000;stroke-width:2;stroke-miterlimit:4;stroke-dasharray:none" />
          <path
             d="m -1764.5987,1381.0209 -20.8629,-22.5832 18.8268,-23.0888 166.7467,-30.8761 15.9028,4.3168 -7.5574,27.0884 z"
             style="display:inline;fill:#ffffff;stroke:#000000;stroke-width:2;stroke-miterlimit:4;stroke-dasharray:none"
             id="path4984-7-2-1"
             inkscape:connector-curvature="0" />
          <path
             d="m -1740.0028,1420.2172 -22.1548,-17.2942 3.5923,-26.2849 160.065,-42.0892 24.0239,-1.9378 -9.5164,31.2571 z"
             style="display:inline;fill:#ffffff;stroke:#000000;stroke-width:2;stroke-miterlimit:4;stroke-dasharray:none"
             id="path4982-7-3-4"
             inkscape:connector-curvature="0" />
          <path
             sodipodi:nodetypes="ccccccc"
             d="m -1702.2822,1478.5652 -35.6227,-20.0095 0.4439,-36.5394 147.1749,-58.7477 30.2316,3.5064 -6.176,36.8628 z"
             style="display:inline;fill:#ffffff;stroke:#000000;stroke-width:2;stroke-miterlimit:4;stroke-dasharray:none"
             id="path4980-4-2-6"
             inkscape:connector-curvature="0" />
          <path
             d="m -1541.41,1459.2228 9.666,-43.4355 -39.5415,-11.674 -127.4562,74.4401 0.8921,38.7814 42.4511,19.0434 z"
             style="display:inline;fill:#ffffff;stroke:#000000;stroke-width:2;stroke-miterlimit:4;stroke-dasharray:none"
             id="path4978-2-9-2"
             inkscape:connector-curvature="0" />
          <path
             d="m -1630.1567,1586.2099 -26.5047,-7.1947 0.6362,-41.1862 103.2968,-95.0979 44.3219,-0.1892 -7.5119,34.6208 z"
             style="display:inline;fill:#ffffff;stroke:#000000;stroke-width:2;stroke-miterlimit:4;stroke-dasharray:none"
             id="path4976-5-9-6"
             inkscape:connector-curvature="0" />
          <path
             d="m -1602.4076,1628.4686 -29.2585,-7.5188 1.5431,-37.1815 114.2113,-107.6809 22.447,1.6964 -8.4431,26.2897 z"
             style="display:inline;fill:#ffffff;stroke:#000000;stroke-width:2;stroke-miterlimit:4;stroke-dasharray:none"
             id="path4974-5-5-7"
             inkscape:connector-curvature="0"
             sodipodi:nodetypes="ccccccc" />
          <path
             sodipodi:nodetypes="cccccccccc"
             inkscape:connector-curvature="0"
             id="rect5078-3-5-5"
             style="display:inline;fill:#ffffff;stroke:#000000;stroke-width:2;stroke-miterlimit:4;stroke-dasharray:none"
             d="m -1485.0702,1483.3899 5.7526,-6.8734 c -16.164,-67.186 -51.2604,-128.3596 -103.2503,-176.69 l -8.1461,1.3736 c 55.3549,53.3348 87.9559,117.5545 105.6438,182.1898 z m 29.8627,-38.9452 3.9826,-4.8581 c -18.7192,-53.55 -47.7937,-104.7387 -86.3076,-146.035 l -7.6445,1.2576 c 42.0183,44.9512 70.5382,97.1553 89.9695,149.6355 z" />
        </g>
      </g>
      <g
         inkscape:export-ydpi="14.04"
         inkscape:export-xdpi="14.04"
         inkscape:export-filename="/home/ale/docs/src/htdocs-bc_oberurdorf/resources/bc-oberurdorf-75.png"
         transform="translate(-470,-106)"
         id="g4600">
        <path
           id="path3282-4-7-3"
           style="fill:#ffffff;fill-opacity:1;fill-rule:evenodd;stroke:#000000;stroke-width:2;stroke-linecap:butt;stroke-miterlimit:4;stroke-dasharray:none;stroke-dashoffset:0;stroke-opacity:1"
           d="m -1244.781,1439.7033 3.4277,143.9846 c 2.4484,102.8461 179.2221,102.8461 181.6705,0 l 3.4277,-143.9846 z"
           inkscape:connector-curvature="0" />
        <path
           id="path5082-1-5-4"
           style="color:#000000;display:inline;overflow:visible;visibility:visible;fill:#000000;fill-opacity:1;fill-rule:evenodd;stroke:#ffffff;stroke-width:0.8466168;stroke-linecap:butt;stroke-linejoin:miter;stroke-miterlimit:4;stroke-dasharray:none;stroke-dashoffset:0;stroke-opacity:1;marker:none;enable-background:accumulate"
           d="m -1107.9812,1525.3397 c 4.6658,3.7173 6.059,9.2293 14.8419,10.7297 -0.181,-1.4431 -1.2064,-2.8863 -1.7041,-3.6961 4.3612,2.5426 7.5611,3.8184 12.4501,4.9885 -0.6846,-1.511 -2.0026,-2.7053 -2.7928,-3.6886 3.4714,1.6333 9.2154,2.2621 13.3202,1.6785 -0.9153,-0.9576 -1.8307,-1.9152 -2.746,-2.6617 3.6388,0.024 7.0665,-0.2684 10.5998,-0.6665 -0.9334,-1.0631 -1.8669,-2.1263 -3.117,-2.9784 2.6993,-0.5217 4.9402,-1.7613 7.3228,-3.1276 -5.7511,-13.5319 -19.0773,-25.7758 -41.8534,-16.561 -0.5913,-4.7986 3.56,-4.4795 9.107,-7.0168 5.874,-2.6869 42.6181,-24.9996 13.4364,-45.5344 16.2296,24.334 -27.1068,30.7648 -68.9038,31.7579 -41.6662,0.9901 -85.6242,-7.5651 -73.1542,-29.6678 -26.793,17.3996 9.5031,39.5631 14.6307,42.6979 5.2043,3.1816 8.9518,3.2632 8.3605,8.0618 -22.776,-10.5584 -35.5233,2.1077 -39.9307,17.7297 2.4882,0.6274 4.4486,1.2547 6.9368,0.932 -1.4613,0.5353 -2.5003,1.1762 -3.4337,2.2394 3.5333,0.3981 6.961,1.2185 10.5998,1.1943 -1.4432,0.5354 -2.9919,1.0707 -4.3295,2.2394 3.6826,0.6893 7.4707,0.8506 11.0477,-0.1493 -1.2125,1.0888 -2.0026,2.072 -2.6873,3.5831 4.889,-1.1702 9.6724,-2.2348 14.0336,-4.7774 -0.4976,0.8098 -1.4175,2.3585 -1.5985,3.8017 5.1936,-1.5005 10.0705,-3.1065 14.7363,-6.8238"
           inkscape:connector-curvature="0" />
        <path
           id="path4104-1-4-4"
           style="fill:#000000;fill-opacity:1;fill-rule:evenodd;stroke:#ffffff;stroke-width:4;stroke-linecap:round;stroke-linejoin:miter;stroke-miterlimit:4;stroke-dasharray:none;stroke-opacity:1"
           d="m -1104.9451,1518.3141 c 6.6062,18.5497 -1.3064,36.2037 -7.0168,43.8923 -1.0824,6.6435 -8.008,29.1511 -9.9215,32.3866 -1.9648,3.3223 1.6417,12.5838 -5.2265,23.6634 -6.4333,10.3781 -5.3459,14.522 -20.5289,14.3727 -15.2886,-0.1503 -18.3045,-4.7367 -24.3699,-15.7994 -6.2669,-11.4304 -1.5364,-20.4798 -4.3458,-24.2244 -2.2558,-3.0068 -7.1787,-20.023 -7.3472,-26.6666 -9.4428,-9.0322 -17.3553,-30.8664 -10.8984,-47.326"
           inkscape:connector-curvature="0"
           sodipodi:nodetypes="ccssssccc" />
        <path
           id="path5080-5-4-1"
           style="color:#000000;display:inline;overflow:visible;visibility:visible;fill:#000000;fill-opacity:1;fill-rule:evenodd;stroke:#ffffff;stroke-width:4;stroke-linecap:round;stroke-linejoin:miter;stroke-miterlimit:4;stroke-dasharray:none;stroke-dashoffset:0;stroke-opacity:1;marker:none;enable-background:accumulate"
           d="m -1169.2202,1557.7276 c 1.3436,5.8224 2.0901,22.0954 -5.076,31.3516 -6.4908,8.384 -9.4055,21.0504 -3.583,26.8728 5.8224,5.8224 10.3012,8.0619 19.1095,5.6731 8.8083,-2.3886 14.0336,-1.045 20.7518,-0.1493 6.7182,0.8959 11.3463,2.0902 16.7209,-3.8815 5.7354,-6.3728 6.4196,-16.5716 -1.3437,-26.5743 -7.0642,-9.102 -6.7182,-29.7094 -5.5238,-32.8445"
           inkscape:connector-curvature="0" />
        <path
           id="path5107-0-6-2"
           style="color:#000000;display:inline;overflow:visible;visibility:visible;fill:#000000;fill-opacity:1;fill-rule:evenodd;stroke:#ffffff;stroke-width:4;stroke-linecap:butt;stroke-linejoin:miter;stroke-miterlimit:4;stroke-dasharray:none;stroke-dashoffset:0;stroke-opacity:1;marker:none;enable-background:accumulate"
           d="m -1157.8298,1474.0299 c 4.8279,-4.0498 11.6179,-3.4396 17.2761,0.5278 6.3972,-2.6832 11.5733,0.491 13.6181,3.2726 6.0545,-0.8748 7.9562,-1.0453 12.2457,2.3224 5.422,1.1244 10.6515,2.2444 8.762,11.5068 1.8271,3.4636 2.1584,6.5254 -0.2112,8.8675 1.6713,3.6285 1.6571,5.8054 -0.5278,8.5509 0.038,3.3108 -1.9027,7.4218 -5.7006,7.9175 -0.5934,2.9519 -4.0223,6.0845 -9.1842,4.6449 -2.4664,3.4003 -6.5165,4.4315 -10.24,2.8503 -2.5253,3.2249 -6.7269,3.5773 -9.2898,2.6392 -1.0205,1.6538 -3.1797,4.1894 -4.7505,4.4338 -1.5835,0.2463 -2.8151,1.5834 -3.6237,2.9558 -0.8085,-1.3723 -1.5123,-2.3928 -3.0958,-2.6391 -1.5708,-0.2444 -3.4133,-2.041 -4.2226,-3.2726 -2.9852,0.4103 -6.3423,0.058 -9.6066,-2.3225 -3.6179,0.5256 -6.4012,-0.1889 -8.8675,-3.5892 -5.3731,-0.038 -8.4853,-2.8542 -9.8177,-5.595 -3.7978,-0.4957 -6.055,-2.8121 -6.7563,-6.9674 -3.0793,-2.0452 -2.9742,-5.9479 -2.7447,-9.9233 -3.0171,-2.4716 -1.9518,-5.5556 0.6334,-8.8675 -1.3299,-7.7701 4.7621,-8.7368 9.9232,-10.5567 2.7494,-3.9452 6.9372,-5.7545 13.6181,-4.6449 3.4153,-1.9984 6.6788,-4.5011 12.5624,-2.1113 z"
           inkscape:connector-curvature="0" />
        <path
           id="path5114-1-1-2"
           style="color:#000000;display:inline;overflow:visible;visibility:visible;fill:none;stroke:#ffffff;stroke-width:4;stroke-linecap:round;stroke-linejoin:miter;stroke-miterlimit:4;stroke-dasharray:none;stroke-dashoffset:0;stroke-opacity:1;marker:none;enable-background:accumulate"
           d="m -1182.358,1527.5703 c -1.7997,2.1703 0.284,4.5253 2.3887,4.8795 2.1194,0.3567 13.754,7.5032 13.0141,14.6961"
           inkscape:connector-curvature="0" />
        <path
           id="path5116-9-2-5"
           style="color:#000000;display:inline;overflow:visible;visibility:visible;fill:none;stroke:#ffffff;stroke-width:4;stroke-linecap:round;stroke-linejoin:miter;stroke-miterlimit:4;stroke-dasharray:none;stroke-dashoffset:0;stroke-opacity:1;marker:none;enable-background:accumulate"
           d="m -1116.1951,1528.2037 c 1.7996,2.1703 0.6661,4.6308 -1.2275,5.4073 -1.9843,0.8137 -9.2146,6.1309 -11.8529,12.7959"
           inkscape:connector-curvature="0" />
        <path
           id="path5122-0-1-8"
           style="color:#000000;display:inline;overflow:visible;visibility:visible;fill:none;stroke:#ffffff;stroke-width:4;stroke-linecap:round;stroke-linejoin:miter;stroke-miterlimit:4;stroke-dasharray:none;stroke-dashoffset:0;stroke-opacity:1;marker:none;enable-background:accumulate"
           d="m -1132.3825,1601.4542 c -10.1051,6.2578 3.6269,15.6791 4.0115,5.595"
           inkscape:connector-curvature="0" />
        <path
           id="path5124-2-4-9"
           style="color:#000000;display:inline;overflow:visible;visibility:visible;fill:none;stroke:#ffffff;stroke-width:4;stroke-linecap:round;stroke-linejoin:miter;stroke-miterlimit:4;stroke-dasharray:none;stroke-dashoffset:0;stroke-opacity:1;marker:none;enable-background:accumulate"
           d="m -1167.4513,1601.4542 c 13.3776,5.5188 -2.7823,17.4737 -4.4338,6.9674"
           inkscape:connector-curvature="0" />
        <path
           id="path5126-9-9-6"
           style="fill:#ffffff;fill-opacity:1;fill-rule:evenodd;stroke:none"
           d="m -1181.3327,1536.1701 c -5.2369,7.2015 4.1007,11.6212 8.4197,4.9307 0.7264,-1.1252 2.0443,-3.4539 1.6277,-2.6374 l -7.8702,-4.0729 c 1.445,-2.1139 -1.3633,0.6604 -2.1772,1.7796 z"
           inkscape:connector-curvature="0"
           sodipodi:nodetypes="ccccc" />
        <path
           id="path11915-2-3-6"
           style="fill:#ffffff;fill-opacity:1;fill-rule:evenodd;stroke:none"
           d="m -1115.912,1537.9616 c 5.2369,7.2015 -4.1007,11.6213 -8.4197,4.9307 -0.7264,-1.1252 -1.1026,-2.5945 -1.1026,-2.5945 l 6.047,-4.371 c 0,0 2.6614,0.9156 3.4753,2.0348 z"
           inkscape:connector-curvature="0"
           sodipodi:nodetypes="ccccc" />
      </g>
    </g>
  </g>
</svg>
