<?xml version="1.0" encoding="UTF-8" standalone="no"?>
<!-- Created with Inkscape (http://www.inkscape.org/) -->

<svg
   xmlns:dc="http://purl.org/dc/elements/1.1/"
   xmlns:cc="http://creativecommons.org/ns#"
   xmlns:rdf="http://www.w3.org/1999/02/22-rdf-syntax-ns#"
   xmlns:svg="http://www.w3.org/2000/svg"
   xmlns="http://www.w3.org/2000/svg"
   xmlns:sodipodi="http://sodipodi.sourceforge.net/DTD/sodipodi-0.dtd"
   xmlns:inkscape="http://www.inkscape.org/namespaces/inkscape"
   width="259.29999"
   height="435.88437"
   id="svg9274"
   version="1.1"
   inkscape:version="0.48.5 r10040"
   sodipodi:docname="New document 17">
  <defs
     id="defs9276" />
  <sodipodi:namedview
     id="base"
     pagecolor="#ffffff"
     bordercolor="#666666"
     borderopacity="1.0"
     inkscape:pageopacity="0.0"
     inkscape:pageshadow="2"
     inkscape:zoom="0.49497475"
     inkscape:cx="217.23509"
     inkscape:cy="151.44751"
     inkscape:document-units="px"
     inkscape:current-layer="layer1"
     showgrid="false"
     fit-margin-top="0"
     fit-margin-left="0"
     fit-margin-right="0"
     fit-margin-bottom="0"
     inkscape:window-width="1356"
     inkscape:window-height="737"
     inkscape:window-x="0"
     inkscape:window-y="0"
     inkscape:window-maximized="0" />
  <metadata
     id="metadata9279">
    <rdf:RDF>
      <cc:Work
         rdf:about="">
        <dc:format>image/svg+xml</dc:format>
        <dc:type
           rdf:resource="http://purl.org/dc/dcmitype/StillImage" />
        <dc:title></dc:title>
      </cc:Work>
    </rdf:RDF>
  </metadata>
  <g
     inkscape:label="Layer 1"
     inkscape:groupmode="layer"
     id="layer1"
     transform="translate(-169.77384,-382.32645)">
    <g
       id="g9357"
       transform="translate(-256.57875,42.426407)">
      <path
         transform="translate(294.1124,29.494924)"
         d="m 315.67267,347.52823 c 0,20.50253 -16.62058,37.12311 -37.12311,37.12311 -20.50253,0 -37.12311,-16.62058 -37.12311,-37.12311 0,-20.50253 16.62058,-37.12311 37.12311,-37.12311 20.50253,0 37.12311,16.62058 37.12311,37.12311 z"
         sodipodi:ry="37.123108"
         sodipodi:rx="37.123108"
         sodipodi:cy="347.52823"
         sodipodi:cx="278.54956"
         id="path9347"
         style="fill:#000000;fill-opacity:1;stroke:none"
         sodipodi:type="arc" />
      <path
         sodipodi:nodetypes="cssssscsssssccssssscscsssssc"
         inkscape:connector-curvature="0"
         id="path9349"
         d="m 516.34596,490.41279 c 0,0 -30.33909,157.53301 -36.87057,168.1904 -5.58648,9.11543 -49.17952,80.64187 -49.17952,80.64187 -9.30648,15.26025 -0.48739,26.17007 9.37237,31.86186 8.39384,4.84557 26.43707,3.64583 32.40283,-6.53009 0,0 48.36581,-75.26654 53.64322,-91.50036 3.65343,-11.23832 12.14286,-57.85715 12.14286,-57.85715 0,0 46.99639,48.47026 52.14285,57.14286 6.48762,10.93265 18.57143,87.14286 18.57143,87.14286 2.88977,13.5597 15.82177,17.98193 29.28572,15.71429 10.63293,-1.79083 21.7528,-8.98506 19.28571,-22.14286 0,0 -10.74645,-88.35976 -19.28571,-102.85714 -10.19148,-17.30242 -65,-76.42858 -65,-76.42858 l 15.71428,-70 c 0,0 10.08584,20.44568 17.14286,29.28572 8.02546,10.05316 58.57143,39.28571 58.57143,39.28571 4.63634,3.10974 15.13302,1.39621 19.28571,-6.42857 3.33319,-6.28063 3.1763,-16.45389 -4.28571,-21.42857 0,0 -41.65507,-26.15138 -51.42857,-34.28572 C 616.98677,501.17206 595,440.93361 595,440.93361 c -6.82083,-9.38643 -16.15059,-19.74176 -32.14285,-20 -16.11894,-0.26028 -24.18651,8.61962 -31.42858,13.57143 0,0 -61.74728,45.10537 -67.85714,54.28571 -6.14688,9.23596 -17.14286,78.57143 -17.14286,78.57143 -1.72364,7.90002 1.36209,14.253 10.71429,16.42857 11.44337,2.66203 19.64471,-4.46336 20.71429,-10 0,0 7.05078,-54.76536 12.14285,-62.85714 5.92877,-9.42137 26.34596,-20.52082 26.34596,-20.52082 z"
         style="fill:#000000;stroke:none" />
    </g>
  </g>
</svg>
